<?xml version="1.0" encoding="iso-8859-1"?>
<!-- Generator: Adobe Illustrator 19.1.0, SVG Export Plug-In . SVG Version: 6.00 Build 0)  -->
<svg version="1.1" id="Capa_1" xmlns="http://www.w3.org/2000/svg" xmlns:xlink="http://www.w3.org/1999/xlink" x="0px" y="0px"
	 viewBox="0 0 424.236 424.236" style="enable-background:new 0 0 424.236 424.236;" xml:space="preserve">
<g>
	<path style="fill:#333333;" d="M364.513,210.546c20.66,3.78,36.37,21.9,36.37,43.63c0,22.51-16.86,41.15-38.62,43.98
		c-5.31,30.7-19.9,58.97-42.38,81.45c-28.78,28.78-67.05,44.63-107.75,44.63h-0.01c-40.76,0-79.07-16.1-107.89-45.33
		c-22.08-22.4-36.51-50.38-42.01-80.72c-21.87-2.71-38.87-21.41-38.87-44.01c0-21.73,15.71-39.85,36.37-43.63v-79.66
		c-1.85,1.09-3.6,2.4-5.2,3.96c-4.7,4.54-11.57,5.25-17.09,1.76c-5.52-3.5-7.83-10-5.74-16.19l3.9-11.53
		c2.12-6.27,5.23-12.09,9.16-17.26c4.43-41.54,33.15-70.77,83.24-84.59c38.26-10.56,78.89-9.21,117.48,3.89l50.23,17.05
		c15.25-5.38,32.12-3.33,45.71,5.68c14.46,9.6,23.1,25.7,23.1,43.06V210.546z M384.883,254.176c0-12.86-8.61-23.75-20.37-27.21
		v44.88c0,3.22-0.11,6.44-0.31,9.63C376.123,278.116,384.883,267.156,384.883,254.176z M348.513,271.846v-74.31
		c-33.68-3.97-59.89-32.68-59.89-67.41v-21.71c-22.52,23.67-51.82,39.73-84.42,45.94c-40.18,7.65-81.16-0.45-115.4-22.8
		c-4.05-2.64-8.55-4.1-13.08-4.44v143.21c0,36.67,14.17,71.24,39.9,97.34c25.79,26.16,60.06,40.57,96.5,40.57c0,0,0,0,0.01,0
		c36.43,0,70.68-14.19,96.43-39.95C334.333,342.526,348.513,308.276,348.513,271.846z M348.513,181.406V76.716
		c0-12.17-5.81-23-15.95-29.73c-8.65-5.74-18.84-7.4-28.61-4.82l0.67,87.96C304.623,156.016,323.683,177.546,348.513,181.406z
		 M288.583,83.576l-0.63-41.34l-47.62-16.16c-35.55-12.07-72.93-13.32-108.09-3.62c-35.4,9.77-57.91,27.23-67.21,52.02
		c1.38-0.72,2.79-1.41,4.23-2.03c15.88-6.8,33.96-6.52,49.61,0.77c17.85,8.32,39.43,3.83,52.48-10.93l1.99-2.24
		c2.92-3.31,7.98-3.62,11.29-0.69s3.62,7.99,0.69,11.29l-1.98,2.25c-17.71,20.01-46.99,26.11-71.22,14.83
		c-11.54-5.37-24.86-5.58-36.56-0.57c-11.7,5.01-20.74,14.79-24.81,26.85l-1.56,4.6c14.37-9.83,33.32-10.25,48.35-0.44
		c30.76,20.07,67.58,27.34,103.66,20.47C236.443,131.926,267.373,112.406,288.583,83.576z M60.123,281.496
		c-0.26-3.7-0.4-7.42-0.4-11.17v-43.36c-11.76,3.46-20.37,14.35-20.37,27.21C39.353,267.186,48.163,278.166,60.123,281.496z"/>
	<path style="fill:#FFEBFA;" d="M364.513,226.966c11.76,3.46,20.37,14.35,20.37,27.21c0,12.98-8.76,23.94-20.68,27.3
		c0.2-3.19,0.31-6.41,0.31-9.63V226.966z"/>
	<path style="fill:#F9E6D9;" d="M348.513,197.536v74.31c0,36.43-14.18,70.68-39.95,96.44c-25.75,25.76-60,39.95-96.43,39.95
		c-0.01,0-0.01,0-0.01,0c-36.44,0-70.71-14.41-96.5-40.57c-25.73-26.1-39.9-60.67-39.9-97.34v-143.21c4.53,0.34,9.03,1.8,13.08,4.44
		c34.24,22.35,75.22,30.45,115.4,22.8c32.6-6.21,61.9-22.27,84.42-45.94v21.71C288.623,164.856,314.833,193.566,348.513,197.536z
		 M316.603,249.836c3.13-3.12,3.13-8.19,0-11.31c-5.78-5.78-13.47-8.97-21.65-8.97c-8.18,0-15.87,3.19-21.65,8.97
		c-3.13,3.12-3.13,8.19,0,11.31c1.56,1.57,3.61,2.35,5.65,2.35c2.05,0,4.1-0.78,5.66-2.35c2.76-2.76,6.43-4.28,10.34-4.28
		s7.58,1.52,10.34,4.28C308.413,252.966,313.483,252.966,316.603,249.836z M301.973,319.986c0-9.62-2.81-17.17-8.35-22.44
		c-11.25-10.7-30.52-9.73-54.93-8.5c-8.52,0.42-17.32,0.87-26.57,0.87s-18.06-0.45-26.58-0.87c-24.4-1.23-43.68-2.2-54.93,8.5
		c-5.53,5.27-8.34,12.82-8.34,22.44c0,18.36,9.69,35.45,27.3,48.11c16.81,12.09,39.02,18.75,62.55,18.75
		c23.52,0,45.73-6.66,62.54-18.75C292.273,355.436,301.973,338.346,301.973,319.986z M150.943,249.836c3.12-3.12,3.12-8.19,0-11.31
		c-5.79-5.78-13.48-8.97-21.66-8.97c-8.18,0-15.87,3.19-21.65,8.97c-3.12,3.12-3.12,8.19,0,11.31c1.56,1.57,3.61,2.35,5.66,2.35
		c2.05,0,4.09-0.78,5.66-2.35c2.76-2.76,6.43-4.28,10.33-4.28c3.91,0,7.58,1.52,10.34,4.28
		C142.753,252.966,147.813,252.966,150.943,249.836z"/>
	<path style="fill:#CE8628;" d="M348.513,76.716v104.69c-24.83-3.86-43.89-25.39-43.89-51.28l-0.67-87.96
		c9.77-2.58,19.96-0.92,28.61,4.82C342.703,53.716,348.513,64.546,348.513,76.716z"/>
	<path style="fill:#333333;" d="M316.603,238.526c3.13,3.12,3.13,8.19,0,11.31c-3.12,3.13-8.19,3.13-11.31,0
		c-2.76-2.76-6.43-4.28-10.34-4.28s-7.58,1.52-10.34,4.28c-1.56,1.57-3.61,2.35-5.66,2.35c-2.04,0-4.09-0.78-5.65-2.35
		c-3.13-3.12-3.13-8.19,0-11.31c5.78-5.78,13.47-8.97,21.65-8.97C303.133,229.556,310.823,232.746,316.603,238.526z"/>
	<path style="fill:#333333;" d="M293.623,297.546c5.54,5.27,8.35,12.82,8.35,22.44c0,18.36-9.7,35.45-27.31,48.11
		c-16.81,12.09-39.02,18.75-62.54,18.75c-23.53,0-45.74-6.66-62.55-18.75c-17.61-12.66-27.3-29.75-27.3-48.11
		c0-9.62,2.81-17.17,8.34-22.44c11.25-10.7,30.53-9.73,54.93-8.5c8.52,0.42,17.33,0.87,26.58,0.87s18.05-0.45,26.57-0.87
		C263.103,287.816,282.373,286.846,293.623,297.546z M285.793,323.456c0.12-1.15,0.18-2.3,0.18-3.47c0-7.64-2.54-10.05-3.37-10.84
		c-6.28-5.97-24.17-5.08-43.11-4.12c-8.3,0.41-17.72,0.89-27.37,0.89c-9.66,0-19.07-0.48-27.38-0.89
		c-6.93-0.35-13.72-0.69-19.85-0.69c-10.62,0-19.27,1.02-23.25,4.81c-0.84,0.79-3.37,3.2-3.37,10.84c0,1.17,0.06,2.32,0.18,3.47
		c0.52,5.41,2.28,10.58,5.09,15.4c10.9,18.73,37.54,31.99,68.58,31.99s57.68-13.26,68.58-31.99
		C283.513,334.036,285.273,328.866,285.793,323.456z"/>
	<path style="fill:#CE8628;" d="M287.953,42.236l0.63,41.34c-21.21,28.83-52.14,48.35-87.38,55.06
		c-36.08,6.87-72.9-0.4-103.66-20.47c-15.03-9.81-33.98-9.39-48.35,0.44l1.56-4.6c4.07-12.06,13.11-21.84,24.81-26.85
		c11.7-5.01,25.02-4.8,36.56,0.57c24.23,11.28,53.51,5.18,71.22-14.83l1.98-2.25c2.93-3.3,2.62-8.36-0.69-11.29
		s-8.37-2.62-11.29,0.69l-1.99,2.24c-13.05,14.76-34.63,19.25-52.48,10.93c-15.65-7.29-33.73-7.57-49.61-0.77
		c-1.44,0.62-2.85,1.31-4.23,2.03c9.3-24.79,31.81-42.25,67.21-52.02c35.16-9.7,72.54-8.45,108.09,3.62L287.953,42.236z"/>
	<path style="fill:#333333;" d="M285.793,323.456c-0.52,5.41-2.28,10.58-5.09,15.4c-7.44-4.42-23.29-3.62-41.22-2.72
		c-8.3,0.41-17.71,0.89-27.36,0.89c-9.65,0-19.06-0.48-27.37-0.89c-17.92-0.9-33.76-1.7-41.21,2.72c-2.81-4.82-4.57-9.99-5.09-15.4
		c11.46-5.09,27.83-4.27,47.1-3.3c8.52,0.43,17.32,0.87,26.57,0.87s18.05-0.44,26.56-0.87
		C257.953,319.186,274.333,318.366,285.793,323.456z"/>
	<path style="fill:#CE0649;" d="M239.483,336.136c17.93-0.9,33.78-1.7,41.22,2.72c-10.9,18.73-37.54,31.99-68.58,31.99
		s-57.68-13.26-68.58-31.99c7.45-4.42,23.29-3.62,41.21-2.72c8.31,0.41,17.72,0.89,27.37,0.89
		C221.773,337.026,231.183,336.546,239.483,336.136z"/>
	<path style="fill:#333333;" d="M150.943,238.526c3.12,3.12,3.12,8.19,0,11.31c-3.13,3.13-8.19,3.13-11.32,0
		c-2.76-2.76-6.43-4.28-10.34-4.28c-3.9,0-7.57,1.52-10.33,4.28c-1.57,1.57-3.61,2.35-5.66,2.35c-2.05,0-4.1-0.78-5.66-2.35
		c-3.12-3.12-3.12-8.19,0-11.31c5.78-5.78,13.47-8.97,21.65-8.97C137.463,229.556,145.153,232.746,150.943,238.526z"/>
	<path style="fill:#FFEBFA;" d="M59.723,270.326c0,3.75,0.14,7.47,0.4,11.17c-11.96-3.33-20.77-14.31-20.77-27.32
		c0-12.86,8.61-23.75,20.37-27.21V270.326z"/>
</g>
<g>
</g>
<g>
</g>
<g>
</g>
<g>
</g>
<g>
</g>
<g>
</g>
<g>
</g>
<g>
</g>
<g>
</g>
<g>
</g>
<g>
</g>
<g>
</g>
<g>
</g>
<g>
</g>
<g>
</g>
</svg>
