<?xml version="1.0" encoding="iso-8859-1"?>
<!-- Generator: Adobe Illustrator 19.1.0, SVG Export Plug-In . SVG Version: 6.00 Build 0)  -->
<svg version="1.1" id="Capa_1" xmlns="http://www.w3.org/2000/svg" xmlns:xlink="http://www.w3.org/1999/xlink" x="0px" y="0px"
	 viewBox="0 0 421.563 421.563" style="enable-background:new 0 0 421.563 421.563;" xml:space="preserve">
<g>
	<path style="fill:#333333;" d="M391.824,397.883c1.77,1.96,2.46,4.68,1.84,7.25c-0.63,2.57-2.48,4.66-4.95,5.6
		c-14.83,5.6-35.34,10.83-60.22,10.83c-14.93,0-31.44-1.88-49.24-6.7c-23.2-6.27-39.56-15.07-45.14-18.32
		c-7.59,1.25-15.39,1.91-23.33,1.91c-7.95,0-15.74-0.66-23.33-1.91c-5.59,3.25-21.95,12.05-45.14,18.32
		c-13.35,3.61-30.36,6.69-49.51,6.69c-18.44,0-38.86-2.85-59.96-10.82c-2.47-0.94-4.32-3.03-4.94-5.6
		c-0.63-2.57,0.06-5.29,1.83-7.25c18.74-20.75,19.54-73.63,17.32-128.35c-8.16-7.66-13.27-18.54-13.27-30.59
		c0-10.58,3.94-20.26,10.43-27.65c-2.73-55.8-4.17-93.12,13.54-127.59c0.98-1.92,2.04-3.85,3.14-5.74
		c12.73-21.88,36.39-36.03,62.39-37.58c20.14-24.52,49.35-39.14,80.73-40.26c35.72-1.28,70.89,7.44,101.73,25.19
		c26.46,15.23,46,34.88,58.08,58.39c17.7,34.46,16.25,71.78,13.53,127.58c6.48,7.4,10.43,17.07,10.43,27.66
		c0,12.05-5.11,22.93-13.28,30.6C372.294,324.253,373.084,377.133,391.824,397.883z M371.784,238.943c0-11.55-7.57-21.35-18-24.74
		v1.2c0,0.12,0,0.24,0,0.36v39.69c0,2.79-0.09,5.56-0.25,8.31C364.094,260.453,371.784,250.583,371.784,238.943z M361.854,200.143
		c2.32-51.55,1.9-81.55-12.26-109.13c-10.65-20.73-28.09-38.16-51.83-51.83c-28.24-16.26-60.47-24.24-93.18-23.07
		c-27.84,0.99-53.71,14.48-70.97,37c-1.49,1.93-3.77,3.09-6.2,3.13c-22,0.25-42.16,11.66-52.69,29.77c-0.96,1.64-1.88,3.33-2.74,5
		c-14.18,27.59-14.6,57.59-12.28,109.13c2.58-1.07,5.28-1.89,8.08-2.43v-1.47c0-4.08,3.07-7.51,7.13-7.95
		c31.99-3.49,52.3-18.28,63.92-46.56c1.03-2.5,3.26-4.31,5.91-4.82c2.67-0.5,5.4,0.37,7.27,2.33
		c15.92,16.61,75.59,69.71,185.77,68.51v-18.17c0-4.42,3.58-8,8-8c4.42,0,8,3.58,8,8v8.13
		C356.584,198.253,359.284,199.073,361.854,200.143z M373.074,399.153c-14.27-24.35-16.74-64.83-14.93-120.07
		c-2.12,0.65-4.31,1.14-6.56,1.45c-9.1,51.24-45.59,93.12-93.73,109.95c6.99,3.02,15.84,6.34,26.1,9.08
		C314.894,407.833,344.824,407.683,373.074,399.153z M337.784,255.453v-31.7c-8.25,0.09-16.38-0.12-24.4-0.6
		c3.62,6.04,5.71,13.1,5.71,20.63c0,22.2-18.06,40.25-40.25,40.25s-40.25-18.05-40.25-40.25c0-12.11,5.39-22.98,13.88-30.37
		c-16.49-4.43-32.29-10.27-47.36-17.52c-26.26-12.64-44.9-27.06-56.42-37.57c-13.54,25.2-34.91,39.97-64.91,44.91v52.22
		c0,70.03,56.97,127,127,127S337.784,325.483,337.784,255.453z M303.094,243.783c0-13.37-10.88-24.25-24.25-24.25
		s-24.25,10.88-24.25,24.25c0,13.37,10.88,24.25,24.25,24.25S303.094,257.153,303.094,243.783z M163.684,390.473
		c-48.13-16.84-84.6-58.71-93.7-109.94c-2.25-0.31-4.45-0.8-6.57-1.45c1.81,55.23-0.66,95.71-14.93,120.06
		C96.724,413.633,140.534,400.433,163.684,390.473z M68.034,263.763c-0.16-2.75-0.25-5.52-0.25-8.31v-41.25
		c-10.43,3.39-18,13.19-18,24.74C49.784,250.583,57.474,260.453,68.034,263.763z"/>
	<path style="fill:#BF5B40;" d="M349.594,91.013c14.16,27.58,14.58,57.58,12.26,109.13c-2.57-1.07-5.27-1.89-8.07-2.43v-8.13
		c0-4.42-3.58-8-8-8c-4.42,0-8,3.58-8,8v18.17c-110.18,1.2-169.85-51.9-185.77-68.51c-1.87-1.96-4.6-2.83-7.27-2.33
		c-2.65,0.51-4.88,2.32-5.91,4.82c-11.62,28.28-31.93,43.07-63.92,46.56c-4.06,0.44-7.13,3.87-7.13,7.95v1.47
		c-2.8,0.54-5.5,1.36-8.08,2.43c-2.32-51.54-1.9-81.54,12.28-109.13c0.86-1.67,1.78-3.36,2.74-5
		c10.53-18.11,30.69-29.52,52.69-29.77c2.43-0.04,4.71-1.2,6.2-3.13c17.26-22.52,43.13-36.01,70.97-37
		c32.71-1.17,64.94,6.81,93.18,23.07C321.504,52.853,338.944,70.283,349.594,91.013z"/>
	<path style="fill:#BF5B40;" d="M358.144,279.083c-1.81,55.24,0.66,95.72,14.93,120.07c-28.25,8.53-58.18,8.68-89.12,0.41
		c-10.26-2.74-19.11-6.06-26.1-9.08c48.14-16.83,84.63-58.71,93.73-109.95C353.834,280.223,356.024,279.733,358.144,279.083z"/>
	<path style="fill:#FFEBFA;" d="M337.784,223.753v31.7c0,70.03-56.97,127-127,127s-127-56.97-127-127v-52.22
		c30-4.94,51.37-19.71,64.91-44.91c11.52,10.51,30.16,24.93,56.42,37.57c15.07,7.25,30.87,13.09,47.36,17.52
		c-8.49,7.39-13.88,18.26-13.88,30.37c0,22.2,18.06,40.25,40.25,40.25s40.25-18.05,40.25-40.25c0-7.53-2.09-14.59-5.71-20.63
		C321.404,223.633,329.534,223.843,337.784,223.753z M320.584,294.033c0-4.42-3.59-8-8-8h-13.5c-4.42,0-8,3.58-8,8
		c0,4.42,3.58,8,8,8h13.5C316.994,302.033,320.584,298.453,320.584,294.033z M234.584,321.423c4.1-1.64,6.1-6.29,4.46-10.4
		c-1.64-4.1-6.29-6.1-10.39-4.46c-8.2,3.28-16.51,3.28-24.71,0c-4.1-1.64-8.76,0.36-10.4,4.46s0.36,8.76,4.46,10.4
		c5.99,2.39,12.14,3.58,18.29,3.58C222.444,325.003,228.604,323.813,234.584,321.423z M182.974,243.783
		c0-22.19-18.06-40.25-40.25-40.25s-40.25,18.06-40.25,40.25c0,22.2,18.06,40.25,40.25,40.25S182.974,265.983,182.974,243.783z
		 M130.494,294.033c0-4.42-3.59-8-8-8h-13.5c-4.42,0-8,3.58-8,8c0,4.42,3.58,8,8,8h13.5
		C126.904,302.033,130.494,298.453,130.494,294.033z"/>
	<path style="fill:#F9C5EE;" d="M312.584,286.033c4.41,0,8,3.58,8,8c0,4.42-3.59,8-8,8h-13.5c-4.42,0-8-3.58-8-8c0-4.42,3.58-8,8-8
		H312.584z"/>
	<path style="fill:#0677CC;" d="M278.844,230.303c7.45,0,13.49,6.03,13.49,13.48c0,7.45-6.04,13.49-13.49,13.49
		c-7.45,0-13.48-6.04-13.48-13.49C265.364,236.333,271.394,230.303,278.844,230.303z"/>
	<path style="fill:#333333;" d="M239.044,311.023c1.64,4.11-0.36,8.76-4.46,10.4c-5.98,2.39-12.14,3.58-18.29,3.58
		c-6.15,0-12.3-1.19-18.29-3.58c-4.1-1.64-6.1-6.3-4.46-10.4s6.3-6.1,10.4-4.46c8.2,3.28,16.51,3.28,24.71,0
		C232.754,304.923,237.404,306.923,239.044,311.023z"/>
	<path style="fill:#333333;" d="M142.724,203.533c22.19,0,40.25,18.06,40.25,40.25c0,22.2-18.06,40.25-40.25,40.25
		s-40.25-18.05-40.25-40.25C102.474,221.593,120.534,203.533,142.724,203.533z M166.974,243.783c0-13.37-10.88-24.25-24.25-24.25
		s-24.25,10.88-24.25,24.25c0,13.37,10.88,24.25,24.25,24.25S166.974,257.153,166.974,243.783z"/>
	<path style="fill:#0677CC;" d="M142.724,230.303c7.45,0,13.49,6.03,13.49,13.48c0,7.45-6.04,13.49-13.49,13.49
		s-13.49-6.04-13.49-13.49C129.234,236.333,135.274,230.303,142.724,230.303z"/>
	<path style="fill:#F9C5EE;" d="M122.494,286.033c4.41,0,8,3.58,8,8c0,4.42-3.59,8-8,8h-13.5c-4.42,0-8-3.58-8-8c0-4.42,3.58-8,8-8
		H122.494z"/>
	<path style="fill:#BF5B40;" d="M69.984,280.533c9.1,51.23,45.57,93.1,93.7,109.94c-23.15,9.96-66.96,23.16-115.2,8.67
		c14.27-24.35,16.74-64.83,14.93-120.06C65.534,279.733,67.734,280.223,69.984,280.533z"/>
</g>
<g>
</g>
<g>
</g>
<g>
</g>
<g>
</g>
<g>
</g>
<g>
</g>
<g>
</g>
<g>
</g>
<g>
</g>
<g>
</g>
<g>
</g>
<g>
</g>
<g>
</g>
<g>
</g>
<g>
</g>
</svg>
