<?xml version="1.0" encoding="iso-8859-1"?>
<!-- Generator: Adobe Illustrator 19.1.0, SVG Export Plug-In . SVG Version: 6.00 Build 0)  -->
<svg version="1.1" id="Capa_1" xmlns="http://www.w3.org/2000/svg" xmlns:xlink="http://www.w3.org/1999/xlink" x="0px" y="0px"
	 viewBox="0 0 423.24 423.24" style="enable-background:new 0 0 423.24 423.24;" xml:space="preserve">
<g>
	<path style="fill:#CE0649;" d="M231.805,330.42v17.49c0,10.48-8.52,19-19,19c-10.47,0-19-8.52-19-19v-17.49h11v15.99
		c0,4.42,3.58,8,8,8c4.42,0,8-3.58,8-8v-15.99H231.805z"/>
	<path style="fill:#A54707;" d="M64.285,299.23c3.02,12.94,6.48,37.1-2.33,59.22c-8.82,22.13-27.95,37.29-39.03,44.6
		c-3.02-12.93-6.48-37.09,2.33-59.22C34.075,321.71,53.205,306.55,64.285,299.23z"/>
	<path style="fill:#A54707;" d="M397.985,343.83c8.82,22.14,5.35,46.32,2.33,59.24c-11.07-7.27-30.16-22.39-39.02-44.62
		c-8.82-22.12-5.36-46.28-2.34-59.21C370.045,306.55,389.175,321.71,397.985,343.83z"/>
	<path style="fill:#A54707;" d="M374.295,179.57c0,12.95-1.52,25.84-4.51,38.31c-0.01,0.03-0.01,0.06-0.02,0.08
		c-1.17,4.84-6.33,16.08-6.33,16.08c-38.89-7.32-71.66-26.15-97.45-56.03c-20.36-23.58-28.51-45.59-28.59-45.8
		c-1.11-3.08-3.99-5.18-7.27-5.28c-3.3-0.09-6.28,1.8-7.59,4.81c-0.6,1.37-12.8,30.23-0.22,61.72
		c-23.53-3.39-45.48-15.69-65.44-36.7c-18.16-19.12-27.7-38.62-27.79-38.8c-1.8-3.74-6.2-5.55-10.2-3.95
		c-3.07,1.22-5,4.31-5.01,7.61c-0.07,50.59-30.1,70.47-41.04,76.04c-2.15,1.09-17.72,4.81-23.51,8.47
		c-1.43-8.75-2.16-17.63-2.16-26.56c0-90.19,73.37-163.57,163.57-163.57C300.915,16,374.295,89.38,374.295,179.57z"/>
	<path style="fill:#F9E6D9;" d="M377.535,241.61c0,0.01,0,0.02,0,0.03c0,11.55-7.57,21.36-18,24.74v-16.82
		c2.33,0.45,4.68,0.89,7.09,1.26c0.42,0.07,0.83,0.1,1.25,0.1c2.96,0,5.73-1.65,7.11-4.35L377.535,241.61z"/>
	<path style="fill:#F9E6D9;" d="M63.715,216.91v49.47c-10.44-3.38-18-13.19-18-24.73C45.715,230.1,53.275,220.29,63.715,216.91z"/>
	<path style="fill:#F9E6D9;" d="M343.535,245.75v26.55c0,32.33-11.81,63.43-33.25,87.57c-25.04,28.19-61,44.35-98.66,44.35
		c-37.67,0-73.63-16.16-98.66-44.35c-21.44-24.14-33.25-55.24-33.25-87.57v-60.23c5.39-2.74,14.14-8.06,22.82-17.02
		c9.48-9.77,20.33-25.51,25.01-48.97c4.58,6.5,10.37,13.91,17.39,21.34c26.57,28.13,58.02,43,90.94,43c2.92,0,5.61-1.59,7.01-4.15
		c1.41-2.56,1.31-5.68-0.26-8.14c-8.88-13.95-10.56-28.15-9.87-39.24c4.89,8.4,11.66,18.54,20.67,29.05
		C270.885,208.31,299.945,233.38,343.535,245.75z M302.605,256.87c4.26-1.16,6.77-5.56,5.61-9.82c-1.17-4.27-5.57-6.78-9.83-5.61
		l-35.81,9.77c-3.12,0.86-5.42,3.51-5.83,6.72c-0.4,3.21,1.16,6.34,3.97,7.95l33.22,18.96c1.25,0.72,2.61,1.06,3.96,1.06
		c2.78,0,5.48-1.45,6.95-4.04c2.19-3.83,0.86-8.72-2.98-10.91l-16.44-9.39L302.605,256.87z M268.805,322.42c0-4.42-3.58-8-8-8h-96
		c-4.41,0-8,3.58-8,8c0,4.41,3.59,8,8,8h13v17.49c0,19.3,15.7,35,35,35s35-15.7,35-35v-17.49h13
		C265.225,330.42,268.805,326.83,268.805,322.42z M162.525,265.88c2.81-1.61,4.38-4.74,3.97-7.95c-0.41-3.21-2.71-5.86-5.83-6.72
		l-35.81-9.77c-4.26-1.17-8.66,1.34-9.82,5.61c-1.17,4.26,1.34,8.66,5.61,9.82l17.17,4.69l-16.44,9.39
		c-3.83,2.19-5.17,7.08-2.98,10.91c1.48,2.59,4.18,4.04,6.96,4.04c1.34,0,2.71-0.34,3.96-1.06L162.525,265.88z"/>
	<path style="fill:#333333;" d="M412.845,337.91c15.07,37.81,0.47,78.38-0.16,80.09c-0.78,2.13-2.44,3.83-4.55,4.67
		c-0.95,0.38-1.95,0.57-2.96,0.57c-1.22,0-2.43-0.28-3.55-0.83c-1.63-0.81-40.13-20.22-55.19-58.04c-2.7-6.75-4.44-13.59-5.48-20.28
		c-5.22,9.39-11.47,18.25-18.71,26.41c-28.07,31.6-68.39,49.72-110.62,49.72c-42.24,0-82.56-18.12-110.62-49.73
		c-7.25-8.15-13.5-17.01-18.71-26.4c-1.05,6.69-2.79,13.53-5.48,20.28c0,0.01,0,0.01,0,0.01c-15.07,37.81-53.57,57.22-55.2,58.03
		c-1.11,0.55-2.33,0.83-3.55,0.83c-1,0-2.01-0.19-2.96-0.57c-2.11-0.84-3.76-2.54-4.55-4.67c-0.63-1.71-15.23-42.28-0.16-80.09
		c12.23-30.71,39.92-49.28,50.77-55.61c-18.07-4.69-31.45-21.14-31.45-40.65c0-7.93,2.2-15.35,6.03-21.68
		c-3.03-13.19-4.58-26.76-4.58-40.4C31.165,80.56,111.715,0,210.735,0c99.01,0,179.56,80.56,179.56,179.57
		c0,12.92-1.4,25.79-4.12,38.33c4.76,6.95,7.36,15.24,7.36,23.74c0,19.52-13.39,35.97-31.46,40.66
		C372.925,288.63,400.615,307.2,412.845,337.91z M400.315,403.07c3.02-12.92,6.49-37.1-2.33-59.24
		c-8.81-22.12-27.94-37.28-39.03-44.59c-3.02,12.93-6.48,37.09,2.34,59.21C370.155,380.68,389.245,395.8,400.315,403.07z
		 M377.535,241.64c0-0.01,0-0.02,0-0.03l-2.55,4.96c-1.38,2.7-4.15,4.35-7.11,4.35c-0.42,0-0.83-0.03-1.25-0.1
		c-2.41-0.37-4.76-0.81-7.09-1.26v16.82C369.965,263,377.535,253.19,377.535,241.64z M369.785,217.88
		c2.99-12.47,4.51-25.36,4.51-38.31c0-90.19-73.38-163.57-163.56-163.57c-90.2,0-163.57,73.38-163.57,163.57
		c0,8.93,0.73,17.81,2.16,26.56c5.79-3.66,21.36-7.38,23.51-8.47c10.94-5.57,40.97-25.45,41.04-76.04c0.01-3.3,1.94-6.39,5.01-7.61
		c4-1.6,8.4,0.21,10.2,3.95c0.09,0.18,9.63,19.68,27.79,38.8c19.96,21.01,41.91,33.31,65.44,36.7
		c-12.58-31.49-0.38-60.35,0.22-61.72c1.31-3.01,4.29-4.9,7.59-4.81c3.28,0.1,6.16,2.2,7.27,5.28c0.08,0.21,8.23,22.22,28.59,45.8
		c25.79,29.88,58.56,48.71,97.45,56.03c0,0,5.16-11.24,6.33-16.08C369.775,217.94,369.775,217.91,369.785,217.88z M343.535,272.3
		v-26.55c-43.59-12.37-72.65-37.44-90.11-57.81c-9.01-10.51-15.78-20.65-20.67-29.05c-0.69,11.09,0.99,25.29,9.87,39.24
		c1.57,2.46,1.67,5.58,0.26,8.14c-1.4,2.56-4.09,4.15-7.01,4.15c-32.92,0-64.37-14.87-90.94-43c-7.02-7.43-12.81-14.84-17.39-21.34
		c-4.68,23.46-15.53,39.2-25.01,48.97c-8.68,8.96-17.43,14.28-22.82,17.02v60.23c0,32.33,11.81,63.43,33.25,87.57
		c25.03,28.19,60.99,44.35,98.66,44.35c37.66,0,73.62-16.16,98.66-44.35C331.725,335.73,343.535,304.63,343.535,272.3z
		 M61.955,358.45c8.81-22.12,5.35-46.28,2.33-59.22c-11.08,7.32-30.21,22.48-39.03,44.6c-8.81,22.13-5.35,46.29-2.33,59.22
		C34.005,395.74,53.135,380.58,61.955,358.45z M63.715,266.38v-49.47c-10.44,3.38-18,13.19-18,24.74
		C45.715,253.19,53.275,263,63.715,266.38z"/>
	<path style="fill:#333333;" d="M308.215,247.05c1.16,4.26-1.35,8.66-5.61,9.82l-17.18,4.69l16.44,9.39
		c3.84,2.19,5.17,7.08,2.98,10.91c-1.47,2.59-4.17,4.04-6.95,4.04c-1.35,0-2.71-0.34-3.96-1.06l-33.22-18.96
		c-2.81-1.61-4.37-4.74-3.97-7.95c0.41-3.21,2.71-5.86,5.83-6.72l35.81-9.77C302.645,240.27,307.045,242.78,308.215,247.05z"/>
	<path style="fill:#333333;" d="M260.805,314.42c4.42,0,8,3.58,8,8c0,4.41-3.58,8-8,8h-13v17.49c0,19.3-15.7,35-35,35
		s-35-15.7-35-35v-17.49h-13c-4.41,0-8-3.59-8-8c0-4.42,3.59-8,8-8H260.805z M231.805,347.91v-17.49h-11v15.99c0,4.42-3.58,8-8,8
		c-4.42,0-8-3.58-8-8v-15.99h-11v17.49c0,10.48,8.53,19,19,19C223.285,366.91,231.805,358.39,231.805,347.91z"/>
	<path style="fill:#333333;" d="M166.495,257.93c0.41,3.21-1.16,6.34-3.97,7.95l-33.21,18.96c-1.25,0.72-2.62,1.06-3.96,1.06
		c-2.78,0-5.48-1.45-6.96-4.04c-2.19-3.83-0.85-8.72,2.98-10.91l16.44-9.39l-17.17-4.69c-4.27-1.16-6.78-5.56-5.61-9.82
		c1.16-4.27,5.56-6.78,9.82-5.61l35.81,9.77C163.785,252.07,166.085,254.72,166.495,257.93z"/>
</g>
<g>
</g>
<g>
</g>
<g>
</g>
<g>
</g>
<g>
</g>
<g>
</g>
<g>
</g>
<g>
</g>
<g>
</g>
<g>
</g>
<g>
</g>
<g>
</g>
<g>
</g>
<g>
</g>
<g>
</g>
</svg>
